<?xml version="1.0" encoding="UTF-8"?>
<!DOCTYPE svg PUBLIC "-//W3C//DTD SVG 1.1//EN" "http://www.w3.org/Graphics/SVG/1.1/DTD/svg11.dtd">
<!-- Creator: CorelDRAW X7 -->
<svg xmlns="http://www.w3.org/2000/svg" xml:space="preserve" width="420mm" height="297mm" version="1.1" style="shape-rendering:geometricPrecision; text-rendering:geometricPrecision; image-rendering:optimizeQuality; fill-rule:evenodd; clip-rule:evenodd"
viewBox="0 0 42000 29700"
 xmlns:xlink="http://www.w3.org/1999/xlink">
 <defs>
  <style type="text/css">
   <![CDATA[
    .fil0 {fill:#ED3237}
   ]]>
  </style>
 </defs>
 <g id="Camada_x0020_1">
  <metadata id="CorelCorpID_0Corel-Layer"/>
  <g id="_943077632">
   <path class="fil0" d="M27267 14851c0,-2086 1693,-3766 3765,-3766 2102,0 3795,1680 3795,3766 0,2086 -1693,3766 -3795,3766 -2072,0 -3765,-1680 -3765,-3766z"/>
   <path class="fil0" d="M24319 7956c0,-2086 1693,-3767 3794,-3767 2102,0 3795,1681 3795,3767 0,2086 -1693,3766 -3795,3766 -2101,0 -3794,-1680 -3794,-3766z"/>
   <path class="fil0" d="M17402 4971c0,-2086 1692,-3766 3765,-3766 2101,0 3794,1680 3794,3766 0,2086 -1693,3767 -3794,3767 -2073,0 -3765,-1681 -3765,-3767z"/>
   <path class="fil0" d="M10455 7956c0,-2086 1693,-3767 3794,-3767 2073,0 3765,1681 3765,3767 0,2057 -1692,3766 -3765,3766 -2101,0 -3794,-1709 -3794,-3766z"/>
   <path class="fil0" d="M7478 14851c0,-2086 1693,-3766 3765,-3766 2101,0 3794,1680 3794,3766 0,2057 -1693,3738 -3794,3738 -2072,0 -3765,-1681 -3765,-3738z"/>
   <path class="fil0" d="M10396 21775c0,-2086 1693,-3766 3795,-3766 2072,0 3765,1680 3765,3766 0,2058 -1693,3738 -3765,3738 -2102,0 -3795,-1680 -3795,-3738z"/>
   <path class="fil0" d="M17343 24615c0,-2057 1693,-3738 3765,-3738 2102,0 3795,1681 3795,3738 0,2086 -1693,3766 -3795,3766 -2072,0 -3765,-1680 -3765,-3766z"/>
   <path class="fil0" d="M24290 21718c0,-2058 1693,-3738 3765,-3738 2102,0 3794,1680 3794,3738 0,2086 -1692,3766 -3794,3766 -2072,0 -3765,-1680 -3765,-3766z"/>
  </g>
 </g>
</svg>
